<svg width="374" height="376" viewBox="0 0 374 376" fill="none" xmlns="http://www.w3.org/2000/svg">
<path fill-rule="evenodd" clip-rule="evenodd" d="M77.379 120.369C93.8943 86.6394 124.507 71.6017 161.841 67.768C198.015 64.0536 239.542 83.5295 265.449 109.033C289.939 133.142 316.861 158.177 316.713 192.567C316.554 229.448 295.44 263.622 264.697 283.998C234.438 304.053 196.03 307.333 161.841 295.213C129.34 283.691 97.8881 270.478 85.5411 238.267C73.3258 206.4 62.3619 151.038 77.379 120.369Z" fill="url(#paint0_linear_147602_26)"/>
<line x1="1.5" y1="-1.5" x2="31.5621" y2="-1.5" transform="matrix(-0.0288564 0.999584 0.999584 0.0288564 195.223 284.008)" stroke="#FF6B0A" stroke-width="3" stroke-linecap="round"/>
<path d="M178.483 323.775L194.547 315.021" stroke="#FF6B0A" stroke-width="3" stroke-linecap="round"/>
<path d="M188.296 325.367L195.222 315.453" stroke="#FF6B0A" stroke-width="3" stroke-linecap="round"/>
<path d="M174.168 316.892L192.915 314.801" stroke="#FF6B0A" stroke-width="3" stroke-linecap="round"/>
<path d="M141.443 252.506C152.361 293.792 196.636 349.515 286.389 242.112C233.489 218.638 130.44 187.853 141.443 252.506Z" fill="url(#paint1_linear_147602_26)"/>
<path d="M181.364 160.926C189.681 140.964 177.898 133.201 170.967 131.815C165.769 135.281 147.262 142.212 156.412 142.212C165.561 142.212 162.996 154.688 160.57 160.926C115.656 221.644 141.856 255.537 155.372 264.894C170.967 258.656 196.959 244.309 176.166 236.823C150.174 227.466 170.967 185.879 181.364 160.926Z" fill="url(#paint2_linear_147602_26)"/>
<ellipse cx="10.0949" cy="29.2087" rx="10.0949" ry="29.2087" transform="matrix(-0.00903533 0.999959 0.999959 0.00903533 166.994 282.785)" fill="url(#paint3_radial_147602_26)"/>
<path d="M210.574 295.361L210.574 319.805" stroke="#FF6B0A" stroke-width="3" stroke-linecap="round"/>
<path d="M193.933 328.651L209.997 319.897" stroke="#FF6B0A" stroke-width="3" stroke-linecap="round"/>
<path d="M203.745 330.243L210.672 320.329" stroke="#FF6B0A" stroke-width="3" stroke-linecap="round"/>
<path d="M189.618 321.768L208.365 319.677" stroke="#FF6B0A" stroke-width="3" stroke-linecap="round"/>
<path d="M211.107 183.891C147.274 204.51 160.484 225.321 175.068 233.15C179.274 239.973 192.494 230.816 198.578 225.385C198.69 222.111 200.798 214.371 208.337 209.601C215.876 204.832 213.703 202.845 211.674 202.447C222.235 193.59 216.439 194.178 212.221 195.579C246.026 177.256 223.007 179.795 211.107 183.891Z" fill="#D9D9D9"/>
<path d="M213.426 185.035C148.777 207.067 162.683 227.697 177.717 235.258C182.149 242.024 195.435 232.553 201.524 226.972C201.569 223.682 203.556 215.864 211.142 210.917C218.729 205.97 216.471 204.019 214.394 203.662C224.976 194.547 219.079 195.258 214.808 196.752C242.616 176.915 225.474 180.676 213.426 185.035Z" fill="#FAFAFA"/>
<path d="M145.245 157.198C164.785 167.973 173.856 161.687 175.948 157.198C190.216 148.714 186.906 119.76 162.48 119.76C138.054 119.76 120.819 143.729 145.245 157.198Z" fill="white"/>
<path d="M158.631 149.292L155.519 147.289C149.932 143.69 143.196 142.323 136.647 143.457C136.277 143.521 135.98 143.798 135.89 144.163L129.584 169.702C129.128 171.548 131.263 172.929 132.76 171.755L158.728 151.384C159.424 150.839 159.374 149.771 158.631 149.292Z" fill="#DF5B04"/>
<path d="M159.185 149.143L156.635 147.557C150.623 143.818 143.462 142.379 136.472 143.505C136.199 143.549 135.954 143.7 135.791 143.924L120.093 165.522C118.879 167.193 120.685 169.384 122.556 168.51L159.045 151.486C160.005 151.038 160.085 149.703 159.185 149.143Z" fill="#FF6B0A"/>
<circle cx="136.684" cy="136.881" r="2.51109" fill="#797979"/>
<circle cx="162.48" cy="139.392" r="2.51109" fill="#797979"/>
<path d="M144.282 105.519L144.851 102.52L180.704 109.319L177.62 125.584L176.36 125.346L146.459 121.574L141.766 118.786L143.91 107.479L143.734 107.47L143.76 105.516L144.282 105.519Z" fill="#373500"/>
<ellipse cx="162.193" cy="109.018" rx="18.7695" ry="1.86542" transform="rotate(10.7376 162.193 109.018)" fill="#0C0632"/>
<path d="M141.342 118.759C129.127 119.463 117.532 135.272 168.488 126.928L141.342 118.759Z" fill="#373500"/>
<path d="M141.258 118.627C143.159 124.285 173.986 129.828 178.152 125.623L180.597 112.543C175.16 113.278 165.488 108.371 157.126 109.805L146.444 119.308L143.76 105.516L141.258 118.627Z" fill="#494600"/>
<ellipse cx="162.73" cy="106.148" rx="18.242" ry="1.86542" transform="rotate(10.7376 162.73 106.148)" fill="#373500"/>
<ellipse cx="162.459" cy="109.068" rx="18.4987" ry="1.86542" transform="rotate(10.7376 162.459 109.068)" fill="#373500"/>
<path d="M148.222 108.08C148.276 108.149 148.323 108.203 148.36 108.262C148.679 108.741 148.806 109.208 148.713 109.77C148.674 110.008 148.606 110.245 148.552 110.477C148.504 110.683 148.457 110.885 148.412 111.092C148.401 111.146 148.386 111.166 148.324 111.152C148.195 111.118 148.068 111.138 147.974 111.241C147.888 111.33 147.87 111.439 147.904 111.551C147.938 111.666 148.024 111.739 148.133 111.782C148.188 111.802 148.232 111.793 148.28 111.752C148.65 111.447 148.935 111.078 149.149 110.651C149.325 110.296 149.428 109.916 149.544 109.544C149.611 109.332 149.687 109.12 149.747 108.906C149.786 108.771 149.835 108.648 149.913 108.531C149.992 108.415 150.093 108.319 150.222 108.245C150.283 108.379 150.303 108.518 150.283 108.656C150.262 108.785 150.224 108.916 150.184 109.038C150.141 109.171 150.079 109.298 150.03 109.425C149.897 109.762 149.761 110.097 149.639 110.438C149.44 111.008 149.394 111.591 149.51 112.182C149.524 112.262 149.568 112.298 149.641 112.316C149.822 112.365 150.003 112.277 150.062 112.112C150.117 111.958 150.03 111.77 149.86 111.7C149.799 111.674 149.803 111.651 149.829 111.602C149.958 111.347 150.084 111.086 150.208 110.829C150.354 110.538 150.48 110.24 150.707 109.999C151.007 109.681 151.34 109.516 151.768 109.418C151.799 109.412 151.83 109.407 151.875 109.398C151.863 109.431 151.855 109.453 151.847 109.475C151.341 110.893 150.856 112.253 150.351 113.671C150.322 113.752 150.322 113.752 150.245 113.724C149.955 113.62 149.661 113.514 149.371 113.41C149.319 113.391 149.292 113.398 149.263 113.446C149.04 113.804 148.727 114.055 148.321 114.182C148.237 114.209 148.154 114.254 148.071 114.29C147.974 114.04 147.789 113.825 147.73 113.551C147.681 113.327 147.659 113.1 147.694 112.873C147.7 112.821 147.683 112.799 147.639 112.783C147.342 112.676 147.048 112.57 146.75 112.463C146.699 112.445 146.681 112.426 146.702 112.367C147.21 110.942 147.699 109.571 148.207 108.145C148.203 108.135 148.208 108.12 148.222 108.08ZM148.313 108.849C148.304 108.85 148.293 108.846 148.285 108.847C148.275 108.873 148.266 108.898 148.257 108.924C148.013 109.609 147.788 110.24 147.543 110.925C147.503 111.039 147.503 111.039 147.62 111.081C147.665 111.097 147.69 111.094 147.717 111.054C147.81 110.934 147.934 110.863 148.079 110.84C148.141 110.83 148.16 110.799 148.171 110.745C148.228 110.481 148.283 110.211 148.351 109.95C148.419 109.677 148.431 109.458 148.381 109.179C148.364 109.066 148.335 108.96 148.313 108.849ZM151.335 109.948C151.327 109.945 151.325 109.94 151.317 109.938C151.285 109.959 151.253 109.981 151.224 110.003C151.002 110.172 150.823 110.302 150.694 110.549C150.532 110.863 150.378 111.179 150.22 111.495C150.197 111.536 150.197 111.569 150.232 111.611C150.328 111.724 150.381 111.855 150.381 112.007C150.38 112.078 150.416 112.107 150.518 112.123C150.58 112.133 150.574 112.081 150.586 112.048C150.834 111.352 151.063 110.71 151.312 110.01C151.324 109.99 151.332 109.968 151.335 109.948ZM147.974 112.064C147.957 112.054 147.936 112.042 147.913 112.026C147.7 111.891 147.561 111.713 147.572 111.448C147.573 111.411 147.564 111.391 147.529 111.383C147.504 111.374 147.478 111.364 147.452 111.355C147.415 111.342 147.396 111.351 147.382 111.388C147.284 111.663 147.185 111.941 147.091 112.218C147.086 112.232 147.103 112.276 147.118 112.281C147.315 112.356 147.517 112.429 147.716 112.496C147.731 112.502 147.77 112.487 147.778 112.473C147.843 112.339 147.907 112.205 147.974 112.064ZM149.546 112.629C149.508 112.781 149.477 112.927 149.441 113.075C149.43 113.117 149.459 113.127 149.489 113.138C149.676 113.205 149.861 113.268 150.047 113.339C150.105 113.36 150.132 113.345 150.148 113.288C150.231 113.041 150.323 112.797 150.412 112.548C150.452 112.434 150.452 112.434 150.338 112.393C150.305 112.381 150.276 112.371 150.25 112.407C150.107 112.6 149.908 112.66 149.68 112.649C149.632 112.644 149.586 112.631 149.546 112.629ZM149.136 111.316C148.932 111.561 148.732 111.799 148.482 111.999C148.569 112.117 148.649 112.228 148.734 112.337C148.745 112.354 148.784 112.36 148.807 112.355C148.923 112.331 149.035 112.297 149.151 112.272C149.187 112.265 149.201 112.249 149.194 112.209C149.138 111.937 149.133 111.662 149.141 111.384C149.136 111.361 149.137 111.337 149.136 111.316ZM148.026 112.93C147.943 113.116 148.009 113.569 148.113 113.661C148.118 113.658 148.123 113.656 148.123 113.656C148.191 113.465 148.263 113.276 148.326 113.088C148.331 113.073 148.313 113.042 148.3 113.033C148.211 112.993 148.117 112.963 148.026 112.93ZM148.419 113.779C148.61 113.744 148.933 113.418 148.96 113.262C148.879 113.233 148.791 113.201 148.71 113.172C148.662 113.155 148.641 113.168 148.625 113.212C148.57 113.366 148.516 113.52 148.461 113.674C148.445 113.706 148.433 113.739 148.419 113.779ZM148.257 112.687C148.305 112.704 148.355 112.726 148.406 112.736C148.42 112.741 148.46 112.723 148.46 112.71C148.496 112.541 148.443 112.365 148.302 112.273C148.271 112.254 148.25 112.254 148.231 112.285C148.181 112.378 148.135 112.473 148.083 112.571C148.067 112.606 148.084 112.629 148.117 112.64C148.162 112.653 148.21 112.67 148.257 112.687ZM148.933 112.93C148.977 112.946 149.018 112.96 149.062 112.976C149.104 112.996 149.137 112.987 149.146 112.936C149.168 112.841 149.19 112.745 149.208 112.648C149.216 112.602 149.198 112.583 149.148 112.581C148.995 112.572 148.816 112.677 148.761 112.819C148.756 112.833 148.773 112.868 148.786 112.877C148.836 112.899 148.885 112.913 148.933 112.93Z" fill="#FFD500"/>
<ellipse cx="170.463" cy="150.669" rx="9.32012" ry="10.1731" transform="rotate(40.381 170.463 150.669)" fill="url(#paint4_radial_147602_26)"/>
<ellipse cx="235.259" cy="173.966" rx="39.4631" ry="54.059" transform="rotate(-49.5284 235.259 173.966)" fill="#C4C4C4"/>
<ellipse cx="238.417" cy="170.265" rx="34.5978" ry="54.059" transform="rotate(-49.5284 238.417 170.265)" fill="white"/>
<path d="M225.282 171.566L258.258 144.536L239.337 181.296C229.39 182.594 225.823 175.35 225.282 171.566Z" fill="#C4C4C4"/>
<ellipse cx="258.637" cy="144.536" rx="9.1744" ry="12.5677" transform="rotate(-49.5284 258.637 144.536)" fill="#C4C4C4"/>
<ellipse cx="259.371" cy="143.676" rx="8.04331" ry="12.5677" transform="rotate(-49.5284 259.371 143.676)" fill="white"/>
<path d="M256.096 143.803L265.826 135.887L260.243 146.653C257.308 147.033 256.255 144.912 256.096 143.803Z" fill="#C4C4C4"/>
<path d="M238.136 194.702C174.303 215.321 187.513 236.133 202.097 243.961C206.303 250.784 219.523 241.628 225.608 236.197C225.719 232.923 227.827 225.183 235.366 220.413C242.906 215.644 240.732 213.656 238.703 213.259C249.264 204.402 243.468 204.99 239.251 206.39C273.056 188.068 250.037 190.607 238.136 194.702Z" fill="#D9D9D9"/>
<path d="M240.456 195.847C175.807 217.879 189.712 238.509 204.746 246.07C209.178 252.836 222.464 243.365 228.554 237.784C228.599 234.494 230.585 226.676 238.172 221.729C245.758 216.782 243.501 214.831 241.424 214.474C252.005 205.359 246.108 206.069 241.837 207.564C269.646 187.727 252.503 191.487 240.456 195.847Z" fill="#F8F8F8"/>
<defs>
<linearGradient id="paint0_linear_147602_26" x1="75.7324" y1="122.76" x2="298.268" y2="251.24" gradientUnits="userSpaceOnUse">
<stop stop-color="#A5DEFF"/>
<stop offset="1" stop-color="#BDE7FF"/>
</linearGradient>
<linearGradient id="paint1_linear_147602_26" x1="174.142" y1="257.077" x2="290.366" y2="239.521" gradientUnits="userSpaceOnUse">
<stop stop-color="#F2F2F2"/>
<stop offset="1" stop-color="white"/>
</linearGradient>
<linearGradient id="paint2_linear_147602_26" x1="159.814" y1="131.815" x2="159.814" y2="264.894" gradientUnits="userSpaceOnUse">
<stop stop-color="white"/>
<stop offset="1" stop-color="#F2F2F2"/>
</linearGradient>
<radialGradient id="paint3_radial_147602_26" cx="0" cy="0" r="1" gradientUnits="userSpaceOnUse" gradientTransform="translate(10.0949 29.2087) rotate(90) scale(29.2087 10.0949)">
<stop stop-color="#D7D7D7"/>
<stop offset="1" stop-color="#D7D7D7" stop-opacity="0"/>
</radialGradient>
<radialGradient id="paint4_radial_147602_26" cx="0" cy="0" r="1" gradientUnits="userSpaceOnUse" gradientTransform="translate(170.463 150.669) rotate(90) scale(10.1731 9.32012)">
<stop stop-color="#FFBBBB"/>
<stop offset="1" stop-color="#FFBBBB" stop-opacity="0"/>
</radialGradient>
</defs>
</svg>
